<svg aria-hidden="true" style="position: absolute; width: 0; height: 0; overflow: hidden;" version="1.1" xmlns="http://www.w3.org/2000/svg" xmlns:xlink="http://www.w3.org/1999/xlink">
<defs>
<symbol id="icon-geomarker" viewBox="0 0 32 32">
<path fill="var(--color1, #fff)" opacity="0.3" d="M32 16c0 8.837-7.163 16-16 16s-16-7.163-16-16c0-8.837 7.163-16 16-16s16 7.163 16 16z"></path>
<path fill="var(--color1, #fff)" opacity="0.8" d="M26.566 16c0 5.835-4.731 10.566-10.566 10.566s-10.566-4.731-10.566-10.566c0-5.835 4.731-10.566 10.566-10.566s10.566 4.731 10.566 10.566z"></path>
<path fill="var(--color2, #7e5aff)" d="M18.415 16c0 1.334-1.081 2.415-2.415 2.415s-2.415-1.081-2.415-2.415c0-1.334 1.081-2.415 2.415-2.415s2.415 1.081 2.415 2.415z"></path>
</symbol>
<symbol id="icon-search" viewBox="0 0 32 32">
<path fill="var(--color1, #fff)" d="M13 24c1.445 0 2.875-0.285 4.209-0.837s2.547-1.363 3.569-2.384c1.021-1.021 1.832-2.234 2.384-3.569s0.837-2.765 0.837-4.21-0.285-2.875-0.837-4.21c-0.553-1.335-1.363-2.547-2.384-3.569s-2.234-1.832-3.569-2.384-2.765-0.837-4.21-0.837c-2.917 0-5.715 1.159-7.778 3.222s-3.222 4.861-3.222 7.778c0 2.917 1.159 5.715 3.222 7.778s4.861 3.222 7.778 3.222zM26 13c0 3.448-1.37 6.754-3.808 9.192s-5.745 3.808-9.192 3.808-6.754-1.37-9.192-3.808c-2.438-2.438-3.808-5.745-3.808-9.192s1.37-6.754 3.808-9.192c2.438-2.438 5.745-3.808 9.192-3.808s6.754 1.37 9.192 3.808c2.438 2.438 3.808 5.745 3.808 9.192z"></path>
<path fill="var(--color1, #fff)" d="M20.688 23.484c0.060 0.080 0.124 0.156 0.196 0.23l7.7 7.7c0.375 0.375 0.884 0.586 1.414 0.586s1.039-0.21 1.415-0.585c0.375-0.375 0.586-0.884 0.586-1.414s-0.21-1.039-0.585-1.415l-7.7-7.7c-0.072-0.072-0.148-0.139-0.23-0.2-0.785 1.070-1.727 2.014-2.796 2.8v-0.002z"></path>
<path fill="var(--color1, #fff)" d="M13 6c0.265 0 0.52 0.105 0.707 0.293s0.293 0.442 0.293 0.707v5h5c0.265 0 0.52 0.105 0.707 0.293s0.293 0.442 0.293 0.707c0 0.265-0.105 0.52-0.293 0.707s-0.442 0.293-0.707 0.293h-5v5c0 0.265-0.105 0.52-0.293 0.707s-0.442 0.293-0.707 0.293c-0.265 0-0.52-0.105-0.707-0.293s-0.293-0.442-0.293-0.707v-5h-5c-0.265 0-0.52-0.105-0.707-0.293s-0.293-0.442-0.293-0.707c0-0.265 0.105-0.52 0.293-0.707s0.442-0.293 0.707-0.293h5v-5c0-0.265 0.105-0.52 0.293-0.707s0.442-0.293 0.707-0.293z"></path>
</symbol>
<symbol id="icon-facebook" viewBox="0 0 19 32">
<path  d="M16.016 18l0.889-5.791h-5.557v-3.758c0-1.584 0.776-3.129 3.265-3.129h2.526v-4.931c0 0-2.293-0.391-4.484-0.391-4.576 0-7.567 2.774-7.567 7.795v4.414h-5.087v5.791h5.087v14h6.261v-14h4.668z"></path>
</symbol>
<symbol id="icon-google" viewBox="0 0 53 32">
<path  d="M31.105 13.708c0.153 0.808 0.262 1.615 0.262 2.663 0 9.146-6.134 15.629-15.367 15.629-8.84 0-16-7.16-16-16s7.16-16 16-16c4.322 0 7.924 1.572 10.718 4.191l-4.344 4.169c-1.179-1.135-3.252-2.467-6.374-2.467-5.457 0-9.91 4.518-9.91 10.106s4.453 10.106 9.91 10.106c6.33 0 8.709-4.562 9.080-6.898h-9.080v-5.501l15.105 0zM46.555 14.244v-4.644h-4.667v4.644h-4.644v4.667h4.644v4.644h4.667v-4.644h4.645v-4.667h-4.645z"></path>
</symbol>
<symbol id="icon-linkedin" viewBox="0 0 32 32">
<path d="M7.163 32h-6.634v-21.365h6.634v21.365zM3.842 7.721c-2.122 0-3.842-1.757-3.842-3.879 0-1.019 0.405-1.996 1.125-2.717s1.698-1.125 2.717-1.125c1.019 0 1.996 0.405 2.717 1.125s1.125 1.698 1.125 2.717c0 2.121-1.721 3.879-3.842 3.879zM31.994 32h-6.62v-10.4c0-2.479-0.050-5.657-3.449-5.657-3.449 0-3.978 2.693-3.978 5.479v10.579h-6.627v-21.365h6.363v2.914h0.093c0.886-1.679 3.049-3.45 6.277-3.45 6.714 0 7.949 4.422 7.949 10.165v11.736h-0.007z"></path>
</symbol>
<symbol id="icon-twitter" viewBox="0 0 40 32">
<path  d="M35.35 7.975c0.025 0.35 0.025 0.7 0.025 1.050 0 10.675-8.125 22.975-22.975 22.975-4.575 0-8.825-1.325-12.4-3.625 0.65 0.075 1.275 0.1 1.95 0.1 3.775 0 7.25-1.275 10.025-3.45-3.55-0.075-6.525-2.4-7.55-5.6 0.5 0.075 1 0.125 1.525 0.125 0.725 0 1.45-0.1 2.125-0.275-3.7-0.75-6.475-4-6.475-7.925v-0.1c1.075 0.6 2.325 0.975 3.65 1.025-2.175-1.45-3.6-3.925-3.6-6.725 0-1.5 0.4-2.875 1.1-4.075 3.975 4.9 9.95 8.1 16.65 8.45-0.125-0.6-0.2-1.225-0.2-1.85 0-4.45 3.6-8.075 8.075-8.075 2.325 0 4.425 0.975 5.9 2.55 1.825-0.35 3.575-1.025 5.125-1.95-0.6 1.875-1.875 3.45-3.55 4.45 1.625-0.175 3.2-0.625 4.65-1.25-1.1 1.6-2.475 3.025-4.050 4.175z"></path>
</symbol>
</defs>
</svg>
